<svg id="Слой_1" data-name="Слой 1" xmlns="http://www.w3.org/2000/svg" viewBox="0 0 463.21 827.16">
  <defs>
    <style>
      .cls-1 {
        fill: #fff;
      }

      .cls-1, .cls-2, .cls-3, .cls-5, .cls-9 {
        fill-rule: evenodd;
      }

      .cls-2 {
        fill: #30379d;
      }

      .cls-3 {
        fill: #b7a06f;
      }

      .cls-10, .cls-11, .cls-4, .cls-6, .cls-7, .cls-8 {
        fill: none;
      }

      .cls-4, .cls-6, .cls-7, .cls-8 {
        stroke: #151616;
      }

      .cls-4 {
        stroke-width: 0.22px;
      }

      .cls-5 {
        fill: #151616;
      }

      .cls-6 {
        stroke-width: 4.02px;
      }

      .cls-7 {
        stroke-width: 4.09px;
      }

      .cls-8 {
        stroke-width: 3.35px;
      }

      .cls-9 {
        fill: #dd2b1c;
      }

      .cls-10, .cls-11 {
        stroke: #dd2b1c;
      }

      .cls-10 {
        stroke-width: 0.44px;
      }

      .cls-11 {
        stroke-width: 0.44px;
      }
    </style>
  </defs>
  <polygon class="cls-1" points="231.6 0 346.52 206.9 462.32 413.69 346.52 620.48 231.6 827.16 0 413.58 231.6 0"/>
  <polygon class="cls-2" points="230.72 62.43 329.07 238.06 427.42 413.69 329.07 589.32 230.72 764.95 34.01 413.69 230.72 62.43"/>
  <path class="cls-3" d="M599.61,25.72,711,224.57,822.32,423.42,711,622.27,599.61,821.12,488.25,622.27,376.9,423.42,488.25,224.57Zm0-15.88,115.8,206.79,115.8,206.79L715.41,630.21,599.61,837,483.8,630.21,368,423.42,483.8,216.63Z" transform="translate(-368 -9.84)"/>
  <path class="cls-1" d="M693.35,605.8l-4.18-3.86s4.11-10.68,6.32-18.79c2.58-7-.23-10.94-4.67-13.76-3.17-2-7.19-3.46-10.64-5-10.87-5.31-15,2.21-15,2.21l-11.38,16.55-33.18-7.63s-.45-3.27-1.14-7.55-1.63-9.55-2.6-13.55c-.79-4-5.57-8.25-9.72-8.24-.71,0-3.63.07-12.6,0-8.6-.07-10.84,5.57-11.93,8.27-1.16,2.87-2.83,16.92-3.31,21.19l-33.38,8s-7.92-10.93-12.9-17.11c-2.79-3.2-8.37-5.92-14.21-2.12s-.93.57-7.73,5.05c-11,6.17-6.95,13.69-6.95,13.69L512.22,602l-8.51,6.9,33.77,56.94a87.49,87.49,0,0,1,13-10.87c15.15-10.24,32.27-15.92,49.21-15.82,22.33.12,44.35,9.63,61.16,25.28Z" transform="translate(-368 -9.84)"/>
  <path class="cls-4" d="M693.35,605.8l-4.18-3.86s4.11-10.68,6.32-18.79c2.58-7-.23-10.94-4.67-13.76-3.17-2-7.19-3.46-10.64-5-10.87-5.31-15,2.21-15,2.21l-11.38,16.55-33.18-7.63s-.45-3.27-1.14-7.55-1.63-9.55-2.6-13.55c-.79-4-5.57-8.25-9.72-8.24-.71,0-3.63.07-12.6,0-8.6-.07-10.84,5.57-11.93,8.27-1.16,2.87-2.83,16.92-3.31,21.19l-33.38,8s-7.92-10.93-12.9-17.11c-2.79-3.2-8.37-5.92-14.21-2.12s-.93.57-7.73,5.05c-11,6.17-6.95,13.69-6.95,13.69L512.22,602l-8.51,6.9,33.77,56.94a87.49,87.49,0,0,1,13-10.87c15.15-10.24,32.27-15.92,49.21-15.82,22.33.12,44.35,9.63,61.16,25.28Z" transform="translate(-368 -9.84)"/>
  <path class="cls-3" d="M599.72,76.52l194.33,347L696.89,597l-97.17,173.5L502.56,597,405.4,423.53,502.56,250Zm0-13.86,101,180.44,101,180.43L700.77,604l-101,180.43L498.68,604l-101-180.44,101-180.43Z" transform="translate(-368 -9.84)"/>
  <path class="cls-5" d="M664,636.4l5-6.9-2.3.2a3,3,0,0,0-1.07.35,4.22,4.22,0,0,0-1.55,1.3l-2.4,3.36a1.43,1.43,0,0,0-.27,1.09,1.46,1.46,0,0,0,.61.94,1.4,1.4,0,0,0,1.09.26A1.37,1.37,0,0,0,664,636.4Zm.87,5.59-3.22-2.31.78-1.08a3.09,3.09,0,0,1-1.66.28,3.47,3.47,0,0,1-1.68-.62,4,4,0,0,1-.91-5.52L660.9,629a3.68,3.68,0,0,1,1.53-1.24,5,5,0,0,1,2.07-.43h4a5.65,5.65,0,0,0,1.65-.31,2.37,2.37,0,0,0,1.13-.72l1.31-1.83a1.42,1.42,0,0,0-.34-2,1.43,1.43,0,0,0-2,.34l-1.77,2.47-3.22-2.3,2.33-3.25a3.34,3.34,0,0,1,2.22-1.38,3.25,3.25,0,0,1,2.54.59l3.25,2.33a3.27,3.27,0,0,1,1.39,2.21,3.32,3.32,0,0,1-.6,2.55Zm-11-19.46-3.68,7,1.29.68a1.4,1.4,0,0,0,1.11.11,1.36,1.36,0,0,0,.85-.73l2.33-4.46a1.38,1.38,0,0,0,.12-1.12,1.4,1.4,0,0,0-.73-.84Zm4.18-8L655.2,620l1.29.67a1.36,1.36,0,0,0,1.11.11,1.39,1.39,0,0,0,.85-.73l1.48-2.84a1.37,1.37,0,0,0,.12-1.11,1.39,1.39,0,0,0-.73-.85Zm-12.72,15.81,10.56-20.22,6.57,3.43a3.25,3.25,0,0,1,1.68,2,3.35,3.35,0,0,1-.23,2.61l-1.95,3.72a2.9,2.9,0,0,1-1.49,1.32,3,3,0,0,1-2,.13,2.89,2.89,0,0,1,1.12,1.64,2.52,2.52,0,0,1-.19,1.89l-2.86,5.46a3.41,3.41,0,0,1-4.6,1.45Zm-3.51-5.84,5.42-13.71a1.41,1.41,0,0,0-.82-1.89,1.41,1.41,0,0,0-1.12,0,1.37,1.37,0,0,0-.77.81l-5.43,13.71a1.5,1.5,0,0,0,0,1.12,1.48,1.48,0,0,0,.82.77,1.43,1.43,0,0,0,1.89-.82Zm9.44-13.14-6.12,15.48a3.41,3.41,0,0,1-4.43,1.92L637,627.28a3.41,3.41,0,0,1-1.92-4.43l6.12-15.49a3.31,3.31,0,0,1,1.82-1.87,3.27,3.27,0,0,1,2.62,0l3.71,1.47a3.39,3.39,0,0,1,1.91,4.43Zm-19.79,4.44,3.79,1.12-1.67,5.59a3.4,3.4,0,0,1-4.24,2.3l-3.83-1.14a3.42,3.42,0,0,1-2.3-4.25l4.75-16a3.4,3.4,0,0,1,4.25-2.29L636,602.3a3.29,3.29,0,0,1,2,1.64,3.24,3.24,0,0,1,.26,2.6l-1.55,5.23L633,610.64l1.29-4.31a1.46,1.46,0,0,0-.11-1.11,1.51,1.51,0,0,0-2-.6,1.41,1.41,0,0,0-.7.88l-4.21,14.12a1.45,1.45,0,0,0,.11,1.12,1.42,1.42,0,0,0,.88.7,1.44,1.44,0,0,0,1.81-1Zm-13.94,2.28,2.2-14.57a1.45,1.45,0,0,0-.26-1.1,1.53,1.53,0,0,0-2.06-.31,1.49,1.49,0,0,0-.57,1l-2.2,14.57a1.47,1.47,0,0,0,.26,1.09,1.5,1.5,0,0,0,2.06.31A1.41,1.41,0,0,0,617.51,618.07Zm6.25-14.93-2.49,16.46a3.4,3.4,0,0,1-3.88,2.87l-3.95-.6a3.42,3.42,0,0,1-2.87-3.88l2.49-16.47a3.39,3.39,0,0,1,3.88-2.86l3.95.59a3.42,3.42,0,0,1,2.87,3.89Zm-27,17,1.25-27.87,4.33.2-.51,11.19,3.25.14.5-11.18,4.33.19-1.26,27.87-4.32-.2.59-13.27-3.24-.14-.6,13.26Zm-1.42.48-4.32.26-.27-4.36,4.33-.26Zm-18,1.9L572.84,595l3.61-.6,3.19,19.23.16,0,.84-19.89,4.27-.71,4.57,27.52-3.62.6-3.06-18.44-.16,0-1,19.11Zm-1.15.52-4.19,1.07L571,619.91l4.19-1.08Zm-12.06-22.4-2.8.93,7.73,23.23L565,626.2l-8.81-26.47,6.92-2.3Zm-.45,26.09-4,1.51-1.53-4.09,4.06-1.52Zm-5.45,2-3.54,1.76-7.32-14.72-.15.07,4.86,15.95-1.87.93L540.5,619.2l-.15.08L547.66,634l-3.54,1.76L534,615.33l4.85-2.41,8.61,12,.25-.12L543.3,610.7l4.84-2.41Zm-15.14,7.75-3.22,2.29-.77-1.09a3.11,3.11,0,0,1-.28,1.66,3.28,3.28,0,0,1-1.13,1.39,4,4,0,0,1-5.51-.93l-11.13-15.64,3.23-2.29,10.88,15.3a1.42,1.42,0,0,0,.94.61,1.44,1.44,0,0,0,1.09-.27,1.42,1.42,0,0,0,.61-.94,1.43,1.43,0,0,0-.27-1.09l-10.88-15.3,3.22-2.29Z" transform="translate(-368 -9.84)"/>
  <path class="cls-1" d="M599.68,364.36c4.39-5.38,6.3-10.87,10.2-14.94s7.35-7,11.72-9,8-4.33,14-5.21,9.1-1.27,13.78-.75,32.86,1.61,37.46,1.61,9.35.32,13.59-.11a49.45,49.45,0,0,0,11.72-2.49,32.76,32.76,0,0,0,10.05-5.33c3.32-2.62,6.6-6.37,9.9-9.56l5.66-6.95-.23,32.68.58-3.3,5.61-5,4.08-5,.51,33.29,9.16-.07v172.4H614.13c-1.17,5-3.69,13.72-8.32,15.45-11.06,4.13-20.07-2.87-22.89-15.37l-143.09-.08-.06-173,9.32-.23L448.91,331l4.08,5,5.62,5,1.76,2.08L460,311.62l5.66,6.95c3.3,3.19,6.58,6.75,9.9,9.37a34.08,34.08,0,0,0,9.9,5.9,50.06,50.06,0,0,0,11.87,2.29,134.89,134.89,0,0,0,13.59.69c4.6,0,15.62-.73,20.45-.87s23.8-.28,28.68.56,9.77,1.71,14.15,3.71a35.89,35.89,0,0,1,11.87,8.26A191.55,191.55,0,0,1,599.68,364.36Z" transform="translate(-368 -9.84)"/>
  <path class="cls-6" d="M738.48,341.73v144.6c-40,32.49-123,3.31-136.31,47.36L599.1,538M749.55,359.91l.22,38.86-.33,104.05c-41.6,33.85-78.11,14.37-122.78,20.69-10.28,2.52-18.44,8-27,14.2-10.37-6.52-17-11.43-27.05-14.2-34.34-6.35-95.09,12.62-122.86-21.5l-.05-121.82-.07-16m11.8-22.92c-5.68-4.08-8.08-5.94-11.74-10.21l.14,18.7-.2,14.43-8.68.11v172.4H583.69c3.47,21.43,25.23,20.68,30.26,6.37a61.09,61.09,0,0,0,1.48-6.37h143V364.27h-8.91l-.11-33.21c-3.9,4.79-6.32,6.55-11,10V311.7c-25.46,31.27-39.37,24.44-72,24.44-19.18,0-23.7-4.28-43.14,4.35C613.17,345,607,354.93,600.59,365l-.91,172.56-1-172.56c-8-12.43-9.67-18.78-22.64-24.71-36.8-16.83-86.19,18.09-114.92-28.6l.34,32.25q-.17,71.19-.34,142.38c34.76,33.91,115.23,3.4,133.58,42.18l5,8.89" transform="translate(-368 -9.84)"/>
  <path class="cls-1" d="M600,185.42l95.58,223.76L616.84,177.41Zm-.31-.73-95.4,223.22,79.31-229.42c-6.86-6.1-7.86-11.4-8.58-18.11.23-13.51,11.25-24.58,24.67-24.48s23.78,11,23.78,24.53S611.43,185,599.68,184.69Zm0-35.12a10.81,10.81,0,1,1,0,21.61,10.93,10.93,0,0,1-10.91-10.68A11,11,0,0,1,599.68,149.57Z" transform="translate(-368 -9.84)"/>
  <path class="cls-7" d="M600,185.42l95.58,223.76L616.84,177.41Zm-.31-.73-95.4,223.22,79.31-229.42c-6.86-6.1-7.86-11.4-8.58-18.11.23-13.51,11.25-24.58,24.67-24.48s23.78,11,23.78,24.53S611.43,185,599.68,184.69Zm0-35.12a10.81,10.81,0,1,1,0,21.61,10.93,10.93,0,0,1-10.91-10.68A11,11,0,0,1,599.68,149.57Z" transform="translate(-368 -9.84)"/>
  <polygon class="cls-1" points="264.62 479.11 264.62 432.49 253.67 432.49 245.84 401.04 299.84 401.04 308.52 432.5 291.21 432.5 291.21 479.11 264.62 479.11"/>
  <polygon class="cls-8" points="264.62 479.11 264.62 432.49 253.67 432.49 245.84 401.04 299.84 401.04 308.52 432.5 291.21 432.5 291.21 479.11 264.62 479.11"/>
  <polygon class="cls-9" points="269.97 472.25 269.97 426.13 257.89 426.11 253.69 408.38 296.15 408.38 300.77 426.12 285.79 426.12 285.79 472.24 269.97 472.25"/>
  <polygon class="cls-10" points="269.97 472.25 269.97 426.13 257.89 426.11 253.69 408.38 296.15 408.38 300.77 426.12 285.79 426.12 285.79 472.24 269.97 472.25"/>
  <polygon class="cls-1" points="191.43 479.09 191.43 401.01 234.89 401.01 244.1 433.05 217.93 433.05 217.93 479.09 191.43 479.09"/>
  <polygon class="cls-8" points="191.43 479.09 191.43 401.01 234.89 401.01 244.1 433.05 217.93 433.05 217.93 479.09 191.43 479.09"/>
  <polygon class="cls-9" points="196.75 472.33 196.75 408.49 231.49 408.49 236.69 426.06 212.57 426.06 212.53 472.33 196.75 472.33"/>
  <polygon class="cls-10" points="196.75 472.33 196.75 408.49 231.49 408.49 236.69 426.06 212.57 426.06 212.53 472.33 196.75 472.33"/>
  <polygon class="cls-1" points="98.05 479.23 118.06 401.05 136.2 401.05 141.5 420 146.62 401.05 163.22 401.05 183.06 479.12 156.09 479.12 151.67 462.48 147.4 479.12 127.31 479.13 123.92 461.6 120.65 479.25 98.05 479.23"/>
  <polygon class="cls-8" points="98.05 479.23 118.06 401.05 136.2 401.05 141.5 420 146.62 401.05 163.22 401.05 183.06 479.12 156.09 479.12 151.67 462.48 147.4 479.12 127.31 479.13 123.92 461.6 120.65 479.25 98.05 479.23"/>
  <polygon class="cls-9" points="105.53 472.24 121.56 408.33 132.63 408.35 141.52 439.97 150.09 408.35 159.59 408.35 175.68 472.21 159.91 472.21 151.6 442.15 143.45 472.24 131.71 472.24 123.92 442.79 116.24 472.24 105.53 472.24"/>
  <polygon class="cls-11" points="105.53 472.24 121.56 408.33 132.63 408.35 141.52 439.97 150.09 408.35 159.59 408.35 175.68 472.21 159.91 472.21 151.6 442.15 143.45 472.24 131.71 472.24 123.92 442.79 116.24 472.24 105.53 472.24"/>
  <path class="cls-1" d="M685.18,489.08l-8.35-32.49,12.31-.06-11.06-45.64H705.3L708,427.94l2.72-17.05h22.81c-5.35,20.76-10.7,41.06-16.05,61.83a28,28,0,0,1-2,4.59,25,25,0,0,1-2.45,4.31,37,37,0,0,1-3.21,3.73,32.43,32.43,0,0,1-4.16,3.61Z" transform="translate(-368 -9.84)"/>
  <path class="cls-8" d="M685.18,489.08l-8.35-32.49,12.31-.06-11.06-45.64H705.3L708,427.94l2.72-17.05h22.81c-5.35,20.76-10.7,41.06-16.05,61.83a28,28,0,0,1-2,4.59,25,25,0,0,1-2.45,4.31,37,37,0,0,1-3.21,3.73,32.43,32.43,0,0,1-4.16,3.61Z" transform="translate(-368 -9.84)"/>
  <path class="cls-9" d="M689,482.08l-4.87-18.19,12.48-.22-10.77-45.42h15.19l7,29.57,7.08-29.62h10.82c-3.33,12.94-10.25,44.89-14.67,54.65-3.13,6.9-4.16,6.77-8.65,9.21Z" transform="translate(-368 -9.84)"/>
  <path class="cls-10" d="M689,482.08l-4.87-18.19,12.48-.22-10.77-45.42h15.19l7,29.57,7.08-29.62h10.82c-3.33,12.94-10.25,44.89-14.67,54.65-3.13,6.9-4.16,6.77-8.65,9.21Z" transform="translate(-368 -9.84)"/>
</svg>
